<svg xmlns="http://www.w3.org/2000/svg" viewBox="0 0 1200 900" role="img" aria-label="Obra provisória Arandu - trama e território"><defs><linearGradient id="bg" x1="0" x2="1" y1="0" y2="1"><stop stop-color="#fff1d8"/><stop offset=".55" stop-color="#d9a15d"/><stop offset="1" stop-color="#6f1712"/></linearGradient><pattern id="lines" width="80" height="80" patternUnits="userSpaceOnUse"><path d="M0 40 H80 M40 0 V80" stroke="#4d0f0b" stroke-width="3" opacity=".24"/><path d="M0 80 L80 0" stroke="#173f31" stroke-width="2" opacity=".18"/></pattern><filter id="grain"><feTurbulence type="fractalNoise" baseFrequency=".72" numOctaves="4"/><feComponentTransfer><feFuncA type="table" tableValues="0 .16"/></feComponentTransfer></filter></defs><rect width="1200" height="900" fill="url(#bg)"/><rect width="1200" height="900" fill="url(#lines)"/><path d="M250 160 C380 116 520 204 610 344 C704 490 832 492 958 378 C900 578 742 728 530 722 C334 716 190 580 202 392 C208 292 222 224 250 160Z" fill="#fffaf0" opacity=".75"/><path d="M238 442 C380 334 512 612 690 476 C820 378 916 438 1018 350" fill="none" stroke="#173f31" stroke-width="18" stroke-linecap="round" opacity=".78"/><path d="M294 520 C456 416 548 668 736 558" fill="none" stroke="#6f1712" stroke-width="14" stroke-linecap="round" opacity=".7"/><rect width="1200" height="900" filter="url(#grain)" opacity=".6"/></svg>