<svg xmlns="http://www.w3.org/2000/svg" viewBox="0 0 900 1200" role="img" aria-label="Obra abstrata inspirada em terra, interior e matéria">
  <defs>
    <linearGradient id="bg" x1="0" y1="0" x2="0" y2="1">
      <stop offset="0" stop-color="#f8ead2"/>
      <stop offset="0.55" stop-color="#b66a3f"/>
      <stop offset="1" stop-color="#3b150d"/>
    </linearGradient>
    <filter id="grain"><feTurbulence type="fractalNoise" baseFrequency="0.9" numOctaves="4"/><feComponentTransfer><feFuncA type="table" tableValues="0 0.2"/></feComponentTransfer></filter>
  </defs>
  <rect width="900" height="1200" fill="url(#bg)"/>
  <path d="M0 810 C190 705 255 930 430 820 C620 700 735 805 900 680 L900 1200 L0 1200 Z" fill="#24110b" opacity="0.82"/>
  <path d="M-30 655 C175 560 315 690 470 610 C610 535 735 560 930 450" fill="none" stroke="#fff3df" stroke-width="18" opacity="0.72"/>
  <path d="M130 250 C280 155 375 395 520 295 C670 190 730 210 820 170" fill="none" stroke="#6f1712" stroke-width="52" stroke-linecap="round" opacity="0.88"/>
  <circle cx="235" cy="440" r="92" fill="#173f31" opacity="0.88"/>
  <circle cx="665" cy="950" r="118" fill="#bd5635" opacity="0.55"/>
  <rect x="80" y="88" width="740" height="1010" rx="34" fill="none" stroke="#fff3df" stroke-width="7" opacity="0.32"/>
  <rect width="900" height="1200" filter="url(#grain)" opacity="0.5"/>
</svg>