<svg xmlns="http://www.w3.org/2000/svg" viewBox="0 0 900 1200" role="img" aria-label="Obra abstrata inspirada em rios brasileiros">
  <defs>
    <linearGradient id="bg" x1="0" y1="0" x2="1" y2="1">
      <stop offset="0" stop-color="#fff3df"/>
      <stop offset="0.48" stop-color="#dba96e"/>
      <stop offset="1" stop-color="#6f1712"/>
    </linearGradient>
    <filter id="grain"><feTurbulence type="fractalNoise" baseFrequency="0.85" numOctaves="3" stitchTiles="stitch"/><feColorMatrix type="saturate" values="0"/><feComponentTransfer><feFuncA type="table" tableValues="0 0.18"/></feComponentTransfer></filter>
  </defs>
  <rect width="900" height="1200" fill="url(#bg)"/>
  <path d="M-40 355 C170 235 245 520 450 405 C610 315 725 230 960 300" fill="none" stroke="#173f31" stroke-width="58" stroke-linecap="round" opacity="0.88"/>
  <path d="M-30 515 C175 420 285 700 480 570 C665 445 745 420 940 470" fill="none" stroke="#fff3df" stroke-width="28" stroke-linecap="round" opacity="0.9"/>
  <path d="M80 860 C230 700 340 1030 520 845 C670 690 760 780 850 710" fill="none" stroke="#24110b" stroke-width="42" stroke-linecap="round" opacity="0.75"/>
  <circle cx="690" cy="225" r="82" fill="#bd5635" opacity="0.84"/>
  <circle cx="230" cy="970" r="54" fill="#fff3df" opacity="0.82"/>
  <rect x="70" y="80" width="760" height="1040" rx="54" fill="none" stroke="#fff3df" stroke-width="8" opacity="0.34"/>
  <rect width="900" height="1200" filter="url(#grain)" opacity="0.45"/>
</svg>