<svg xmlns="http://www.w3.org/2000/svg" viewBox="0 0 1200 900" role="img" aria-label="Obra provisória Arandu - mata e rio"><defs><linearGradient id="bg" x1="0" x2="1" y1="0" y2="1"><stop stop-color="#173f31"/><stop offset="0.46" stop-color="#2d604a"/><stop offset="1" stop-color="#fff1d8"/></linearGradient><filter id="grain"><feTurbulence type="fractalNoise" baseFrequency=".9" numOctaves="3" stitchTiles="stitch"/><feColorMatrix type="saturate" values="0"/><feComponentTransfer><feFuncA type="table" tableValues="0 .14"/></feComponentTransfer></filter></defs><rect width="1200" height="900" fill="url(#bg)"/><path d="M0 638 C185 570 281 714 446 618 C611 522 756 556 926 442 C1048 360 1128 338 1200 310 L1200 900 L0 900 Z" fill="#0f2b22" opacity=".9"/><path d="M-20 730 C198 644 344 776 530 690 C735 596 854 602 1220 430" fill="none" stroke="#fff1d8" stroke-width="36" stroke-linecap="round" opacity=".82"/><path d="M160 210 C226 112 318 112 382 210 C320 174 232 174 160 210Z" fill="#d9a15d" opacity=".72"/><path d="M700 190 C820 80 1010 110 1086 254 C962 220 814 224 700 190Z" fill="#6f1712" opacity=".55"/><rect width="1200" height="900" filter="url(#grain)" opacity=".55"/></svg>