<svg xmlns="http://www.w3.org/2000/svg" viewBox="0 0 1200 900" role="img" aria-label="Obra provisória Arandu - cidade e noite"><defs><linearGradient id="bg" x1="0" x2="1" y1="0" y2="1"><stop stop-color="#120704"/><stop offset=".52" stop-color="#173f31"/><stop offset="1" stop-color="#6f1712"/></linearGradient><filter id="grain"><feTurbulence type="fractalNoise" baseFrequency=".78" numOctaves="4"/><feComponentTransfer><feFuncA type="table" tableValues="0 .18"/></feComponentTransfer></filter></defs><rect width="1200" height="900" fill="url(#bg)"/><rect x="110" y="210" width="180" height="560" rx="18" fill="#fff1d8" opacity=".12"/><rect x="340" y="132" width="240" height="640" rx="22" fill="#d9a15d" opacity=".22"/><rect x="650" y="250" width="170" height="520" rx="18" fill="#fff1d8" opacity=".16"/><rect x="870" y="170" width="230" height="600" rx="20" fill="#bd5635" opacity=".28"/><path d="M80 642 C240 572 350 708 520 620 C710 522 802 572 1114 430" fill="none" stroke="#fff1d8" stroke-width="26" stroke-linecap="round" opacity=".72"/><g fill="#fffaf0" opacity=".68"><circle cx="198" cy="300" r="9"/><circle cx="428" cy="226" r="8"/><circle cx="504" cy="336" r="7"/><circle cx="748" cy="354" r="8"/><circle cx="968" cy="288" r="9"/><circle cx="1042" cy="440" r="7"/></g><rect width="1200" height="900" filter="url(#grain)" opacity=".6"/></svg>